<svg viewBox="0 0 1200 950" xmlns="http://www.w3.org/2000/svg">
<defs>
<style>
text { font-family: 'Segoe UI', Arial, sans-serif; user-select: none; }
.wire-vcc { stroke: #e74c3c; fill: none; stroke-width: 3; stroke-linecap: round; stroke-linejoin: round; opacity: 0.8; }
.wire-gnd { stroke: #2c3e50; fill: none; stroke-width: 3; stroke-linecap: round; stroke-linejoin: round; opacity: 0.8; }
.wire-i2c { stroke: #3498db; fill: none; stroke-width: 3; stroke-linecap: round; stroke-linejoin: round; opacity: 0.8; }
.wire-i2s { stroke: #9b59b6; fill: none; stroke-width: 3; stroke-linecap: round; stroke-linejoin: round; opacity: 0.8; }
.wire-servo { stroke: #f39c12; fill: none; stroke-width: 3; stroke-linecap: round; stroke-linejoin: round; opacity: 0.8; }
.wire-btn { stroke: #1abc9c; fill: none; stroke-width: 3; stroke-linecap: round; stroke-linejoin: round; opacity: 0.8; }
.wire-vcc:hover, .wire-gnd:hover, .wire-i2c:hover, .wire-i2s:hover, .wire-servo:hover, .wire-btn:hover { stroke-width: 6; opacity: 1; cursor: pointer; }
.module { filter: drop-shadow(2px 2px 4px rgba(0,0,0,0.2)); }
.pin { fill: #f1c40f; }
.pin-label { font-size: 11px; fill: #ffffff; }
.pin-label-dark { font-size: 11px; fill: #333333; }
</style>
</defs>
<rect width="100%" height="100%" fill="#fafafa"/>
<text x="600" y="50" font-size="28" font-weight="bold" text-anchor="middle" fill="#333">Xiaozhi Dog - Clean Hardware Wiring Diagram</text>
<g class="module"><rect x="500" y="150" width="200" height="600" fill="#222222" rx="8"/>
<rect x="550" y="200" width="100" height="120" fill="#444" rx="4"/>
<text x="600" y="260" fill="#fff" font-size="16" text-anchor="middle" font-weight="bold">ESP32-S3</text></g>
<circle cx="510" cy="190" r="4" class="pin" fill="#f1c40f"/>
<text x="518" y="194" class="pin-label" text-anchor="start">3V3</text>
<circle cx="510" cy="215" r="4" class="pin" fill="#f1c40f"/>
<text x="518" y="219" class="pin-label" text-anchor="start">3V3</text>
<circle cx="510" cy="240" r="4" class="pin" fill="#f1c40f"/>
<text x="518" y="244" class="pin-label" text-anchor="start">RST</text>
<circle cx="510" cy="265" r="4" class="pin" fill="#f1c40f"/>
<text x="518" y="269" class="pin-label" text-anchor="start">4</text>
<circle cx="510" cy="290" r="4" class="pin" fill="#f1c40f"/>
<text x="518" y="294" class="pin-label" text-anchor="start">5</text>
<circle cx="510" cy="315" r="4" class="pin" fill="#f1c40f"/>
<text x="518" y="319" class="pin-label" text-anchor="start">6</text>
<circle cx="510" cy="340" r="4" class="pin" fill="#f1c40f"/>
<text x="518" y="344" class="pin-label" text-anchor="start">7</text>
<circle cx="510" cy="365" r="4" class="pin" fill="#f1c40f"/>
<text x="518" y="369" class="pin-label" text-anchor="start">15</text>
<circle cx="510" cy="390" r="4" class="pin" fill="#f1c40f"/>
<text x="518" y="394" class="pin-label" text-anchor="start">16</text>
<circle cx="510" cy="415" r="4" class="pin" fill="#f1c40f"/>
<text x="518" y="419" class="pin-label" text-anchor="start">17</text>
<circle cx="510" cy="440" r="4" class="pin" fill="#f1c40f"/>
<text x="518" y="444" class="pin-label" text-anchor="start">18</text>
<circle cx="510" cy="465" r="4" class="pin" fill="#f1c40f"/>
<text x="518" y="469" class="pin-label" text-anchor="start">8</text>
<circle cx="510" cy="490" r="4" class="pin" fill="#f1c40f"/>
<text x="518" y="494" class="pin-label" text-anchor="start">3</text>
<circle cx="510" cy="515" r="4" class="pin" fill="#f1c40f"/>
<text x="518" y="519" class="pin-label" text-anchor="start">46</text>
<circle cx="510" cy="540" r="4" class="pin" fill="#f1c40f"/>
<text x="518" y="544" class="pin-label" text-anchor="start">9</text>
<circle cx="510" cy="565" r="4" class="pin" fill="#f1c40f"/>
<text x="518" y="569" class="pin-label" text-anchor="start">10</text>
<circle cx="510" cy="590" r="4" class="pin" fill="#f1c40f"/>
<text x="518" y="594" class="pin-label" text-anchor="start">11</text>
<circle cx="510" cy="615" r="4" class="pin" fill="#f1c40f"/>
<text x="518" y="619" class="pin-label" text-anchor="start">12</text>
<circle cx="510" cy="640" r="4" class="pin" fill="#f1c40f"/>
<text x="518" y="644" class="pin-label" text-anchor="start">13</text>
<circle cx="510" cy="665" r="4" class="pin" fill="#f1c40f"/>
<text x="518" y="669" class="pin-label" text-anchor="start">5V</text>
<circle cx="510" cy="690" r="4" class="pin" fill="#f1c40f"/>
<text x="518" y="694" class="pin-label" text-anchor="start">GND</text>
<circle cx="690" cy="190" r="4" class="pin" fill="#f1c40f"/>
<text x="682" y="194" class="pin-label" text-anchor="end">GND</text>
<circle cx="690" cy="215" r="4" class="pin" fill="#f1c40f"/>
<text x="682" y="219" class="pin-label" text-anchor="end">TX</text>
<circle cx="690" cy="240" r="4" class="pin" fill="#f1c40f"/>
<text x="682" y="244" class="pin-label" text-anchor="end">RX</text>
<circle cx="690" cy="265" r="4" class="pin" fill="#f1c40f"/>
<text x="682" y="269" class="pin-label" text-anchor="end">1</text>
<circle cx="690" cy="290" r="4" class="pin" fill="#f1c40f"/>
<text x="682" y="294" class="pin-label" text-anchor="end">2</text>
<circle cx="690" cy="315" r="4" class="pin" fill="#f1c40f"/>
<text x="682" y="319" class="pin-label" text-anchor="end">42</text>
<circle cx="690" cy="340" r="4" class="pin" fill="#f1c40f"/>
<text x="682" y="344" class="pin-label" text-anchor="end">41</text>
<circle cx="690" cy="365" r="4" class="pin" fill="#f1c40f"/>
<text x="682" y="369" class="pin-label" text-anchor="end">40</text>
<circle cx="690" cy="390" r="4" class="pin" fill="#f1c40f"/>
<text x="682" y="394" class="pin-label" text-anchor="end">39</text>
<circle cx="690" cy="415" r="4" class="pin" fill="#f1c40f"/>
<text x="682" y="419" class="pin-label" text-anchor="end">38</text>
<circle cx="690" cy="440" r="4" class="pin" fill="#f1c40f"/>
<text x="682" y="444" class="pin-label" text-anchor="end">37</text>
<circle cx="690" cy="465" r="4" class="pin" fill="#f1c40f"/>
<text x="682" y="469" class="pin-label" text-anchor="end">36</text>
<circle cx="690" cy="490" r="4" class="pin" fill="#f1c40f"/>
<text x="682" y="494" class="pin-label" text-anchor="end">35</text>
<circle cx="690" cy="515" r="4" class="pin" fill="#f1c40f"/>
<text x="682" y="519" class="pin-label" text-anchor="end">0</text>
<circle cx="690" cy="540" r="4" class="pin" fill="#f1c40f"/>
<text x="682" y="544" class="pin-label" text-anchor="end">45</text>
<circle cx="690" cy="565" r="4" class="pin" fill="#f1c40f"/>
<text x="682" y="569" class="pin-label" text-anchor="end">48</text>
<circle cx="690" cy="590" r="4" class="pin" fill="#f1c40f"/>
<text x="682" y="594" class="pin-label" text-anchor="end">47</text>
<circle cx="690" cy="615" r="4" class="pin" fill="#f1c40f"/>
<text x="682" y="619" class="pin-label" text-anchor="end">21</text>
<circle cx="690" cy="640" r="4" class="pin" fill="#f1c40f"/>
<text x="682" y="644" class="pin-label" text-anchor="end">20</text>
<circle cx="690" cy="665" r="4" class="pin" fill="#f1c40f"/>
<text x="682" y="669" class="pin-label" text-anchor="end">19</text>
<circle cx="690" cy="690" r="4" class="pin" fill="#f1c40f"/>
<text x="682" y="694" class="pin-label" text-anchor="end">14</text>
<g class="module"><circle cx="200" cy="250" r="50" fill="#1f3a93"/>
<circle cx="200" cy="250" r="20" fill="#e4e9ed"/>
<text x="200" y="215" fill="#fff" font-size="14" text-anchor="middle">INMP441</text></g>
<circle cx="245" cy="225" r="4" class="pin" fill="#f1c40f"/>
<text x="237" y="229" class="pin-label" text-anchor="end">L/R</text>
<circle cx="245" cy="240" r="4" class="pin" fill="#f1c40f"/>
<text x="237" y="244" class="pin-label" text-anchor="end">WS</text>
<circle cx="245" cy="255" r="4" class="pin" fill="#f1c40f"/>
<text x="237" y="259" class="pin-label" text-anchor="end">SCK</text>
<circle cx="245" cy="270" r="4" class="pin" fill="#f1c40f"/>
<text x="237" y="274" class="pin-label" text-anchor="end">VDD</text>
<circle cx="245" cy="285" r="4" class="pin" fill="#f1c40f"/>
<text x="237" y="289" class="pin-label" text-anchor="end">GND</text>
<circle cx="245" cy="300" r="4" class="pin" fill="#f1c40f"/>
<text x="237" y="304" class="pin-label" text-anchor="end">SD</text>
<g class="module"><rect x="150" y="450" width="90" height="120" fill="#8e44ad" rx="5"/>
<text x="195" y="470" fill="#fff" font-size="14" text-anchor="middle">MAX98357A</text></g>
<circle cx="230" cy="490" r="4" class="pin" fill="#f1c40f"/>
<text x="222" y="494" class="pin-label" text-anchor="end">VIN</text>
<circle cx="230" cy="505" r="4" class="pin" fill="#f1c40f"/>
<text x="222" y="509" class="pin-label" text-anchor="end">GND</text>
<circle cx="230" cy="520" r="4" class="pin" fill="#f1c40f"/>
<text x="222" y="524" class="pin-label" text-anchor="end">DIN</text>
<circle cx="230" cy="535" r="4" class="pin" fill="#f1c40f"/>
<text x="222" y="539" class="pin-label" text-anchor="end">BCLK</text>
<circle cx="230" cy="550" r="4" class="pin" fill="#f1c40f"/>
<text x="222" y="554" class="pin-label" text-anchor="end">LRC</text>
<g class="module"><rect x="800" y="150" width="140" height="80" fill="#2980b9" rx="3"/>
<rect x="830" y="160" width="100" height="60" fill="#111" />
<text x="880" y="195" fill="#0f0" font-size="16" text-anchor="middle">^.^</text></g>
<circle cx="810" cy="170" r="4" class="pin" fill="#f1c40f"/>
<text x="818" y="174" class="pin-label" text-anchor="start">GND</text>
<circle cx="810" cy="185" r="4" class="pin" fill="#f1c40f"/>
<text x="818" y="189" class="pin-label" text-anchor="start">VCC</text>
<circle cx="810" cy="200" r="4" class="pin" fill="#f1c40f"/>
<text x="818" y="204" class="pin-label" text-anchor="start">SCL</text>
<circle cx="810" cy="215" r="4" class="pin" fill="#f1c40f"/>
<text x="818" y="219" class="pin-label" text-anchor="start">SDA</text>
<g class="module"><rect x="800" y="280" width="80" height="30" fill="#95a5a6" rx="3"/>
<circle cx="815" cy="295" r="6" fill="#7f8c8d"/>
<text x="830" y="299" fill="#333" font-size="12">Touch(47)</text></g>
<circle cx="795" cy="295" r="4" class="pin" fill="#f1c40f"/>
<g class="module"><rect x="800" y="330" width="80" height="30" fill="#95a5a6" rx="3"/>
<circle cx="815" cy="345" r="6" fill="#7f8c8d"/>
<text x="830" y="349" fill="#333" font-size="12">Vol+(40)</text></g>
<circle cx="795" cy="345" r="4" class="pin" fill="#f1c40f"/>
<g class="module"><rect x="800" y="380" width="80" height="30" fill="#95a5a6" rx="3"/>
<circle cx="815" cy="395" r="6" fill="#7f8c8d"/>
<text x="830" y="399" fill="#333" font-size="12">Vol-(39)</text></g>
<circle cx="795" cy="395" r="4" class="pin" fill="#f1c40f"/>
<g class="module"><rect x="850" y="500" width="80" height="40" fill="#34495e" rx="4"/>
<circle cx="915" cy="520" r="10" fill="#bdc3c7"/>
<text x="880" y="515" fill="#fff" font-size="10" text-anchor="middle">Left Front(17)</text></g>
<circle cx="845" cy="510" r="4" class="pin" fill="#f1c40f"/>
<text x="853" y="514" class="pin-label" text-anchor="start">SIG</text>
<circle cx="845" cy="520" r="4" class="pin" fill="#f1c40f"/>
<text x="853" y="524" class="pin-label" text-anchor="start">VCC</text>
<circle cx="845" cy="530" r="4" class="pin" fill="#f1c40f"/>
<text x="853" y="534" class="pin-label" text-anchor="start">GND</text>
<g class="module"><rect x="850" y="560" width="80" height="40" fill="#34495e" rx="4"/>
<circle cx="915" cy="580" r="10" fill="#bdc3c7"/>
<text x="880" y="575" fill="#fff" font-size="10" text-anchor="middle">Right Front(13)</text></g>
<circle cx="845" cy="570" r="4" class="pin" fill="#f1c40f"/>
<text x="853" y="574" class="pin-label" text-anchor="start">SIG</text>
<circle cx="845" cy="580" r="4" class="pin" fill="#f1c40f"/>
<text x="853" y="584" class="pin-label" text-anchor="start">VCC</text>
<circle cx="845" cy="590" r="4" class="pin" fill="#f1c40f"/>
<text x="853" y="594" class="pin-label" text-anchor="start">GND</text>
<g class="module"><rect x="850" y="620" width="80" height="40" fill="#34495e" rx="4"/>
<circle cx="915" cy="640" r="10" fill="#bdc3c7"/>
<text x="880" y="635" fill="#fff" font-size="10" text-anchor="middle">Left Back(18)</text></g>
<circle cx="845" cy="630" r="4" class="pin" fill="#f1c40f"/>
<text x="853" y="634" class="pin-label" text-anchor="start">SIG</text>
<circle cx="845" cy="640" r="4" class="pin" fill="#f1c40f"/>
<text x="853" y="644" class="pin-label" text-anchor="start">VCC</text>
<circle cx="845" cy="650" r="4" class="pin" fill="#f1c40f"/>
<text x="853" y="654" class="pin-label" text-anchor="start">GND</text>
<g class="module"><rect x="850" y="680" width="80" height="40" fill="#34495e" rx="4"/>
<circle cx="915" cy="700" r="10" fill="#bdc3c7"/>
<text x="880" y="695" fill="#fff" font-size="10" text-anchor="middle">Right Back(14)</text></g>
<circle cx="845" cy="690" r="4" class="pin" fill="#f1c40f"/>
<text x="853" y="694" class="pin-label" text-anchor="start">SIG</text>
<circle cx="845" cy="700" r="4" class="pin" fill="#f1c40f"/>
<text x="853" y="704" class="pin-label" text-anchor="start">VCC</text>
<circle cx="845" cy="710" r="4" class="pin" fill="#f1c40f"/>
<text x="853" y="714" class="pin-label" text-anchor="start">GND</text>
<g class="module"><rect x="850" y="780" width="120" height="60" fill="#f39c12" rx="5"/>
<text x="910" y="805" fill="#000" font-size="14" text-anchor="middle" font-weight="bold">EXT 5V 2A+</text></g>
<circle cx="845" cy="820" r="4" class="pin" fill="#f1c40f"/>
<text x="853" y="824" class="pin-label-dark" text-anchor="start">5V+</text>
<circle cx="845" cy="835" r="4" class="pin" fill="#f1c40f"/>
<path d="M 245 270 C 380 270, 380 190, 510 190" class="wire-vcc" />
<path d="M 230 490 C 380 490, 380 215, 510 215" class="wire-vcc" />
<path d="M 810 185 C 750.0 185, 750.0 190, 690 190" class="wire-vcc" />
<path d="M 810 185 C 750 185, 600 125, 510 190" class="wire-vcc" />
<path d="M 245 225 C 280 225, 280 285, 245 285" class="wire-gnd" />
<path d="M 245 285 C 350 285, 350 690, 510 690" class="wire-gnd" />
<path d="M 230 505 C 340 505, 340 690, 510 690" class="wire-gnd" />
<path d="M 810 170 C 750 170, 750 190, 690 190" class="wire-gnd" />
<path d="M 245 240 C 370 240, 370 265, 510 265" class="wire-i2s" />
<path d="M 245 255 C 360 255, 360 290, 510 290" class="wire-i2s" />
<path d="M 245 300 C 350 300, 350 315, 510 315" class="wire-i2s" />
<path d="M 230 520 C 330 520, 330 340, 510 340" class="wire-i2s" />
<path d="M 230 535 C 320 535, 320 365, 510 365" class="wire-i2s" />
<path d="M 230 550 C 310 550, 310 390, 510 390" class="wire-i2s" />
<path d="M 810 200 C 760 200, 760 315, 690 315" class="wire-i2c" />
<path d="M 810 215 C 770 215, 770 340, 690 340" class="wire-i2c" />
<path d="M 795 295 C 750 295, 750 590, 690 590" class="wire-btn" />
<path d="M 795 345 C 750 345, 750 365, 690 365" class="wire-btn" />
<path d="M 795 395 C 750 395, 750 390, 690 390" class="wire-btn" />
<path d="M 845 520 C 830 520, 830 820, 845 820" class="wire-vcc" />
<path d="M 845 530 C 840 530, 840 835, 845 835" class="wire-gnd" />
<path d="M 845 580 C 830 580, 830 820, 845 820" class="wire-vcc" />
<path d="M 845 590 C 840 590, 840 835, 845 835" class="wire-gnd" />
<path d="M 845 640 C 830 640, 830 820, 845 820" class="wire-vcc" />
<path d="M 845 650 C 840 650, 840 835, 845 835" class="wire-gnd" />
<path d="M 845 700 C 830 700, 830 820, 845 820" class="wire-vcc" />
<path d="M 845 710 C 840 710, 840 835, 845 835" class="wire-gnd" />
<path d="M 845 510 C 805 510, 700 800, 600 800 L 400 800 C 300 800, 470 415, 510 415" class="wire-servo" />
<path d="M 845 570 C 805 570, 700 820, 600 820 L 400 820 C 300 820, 470 640, 510 640" class="wire-servo" />
<path d="M 845 630 C 805 630, 700 840, 600 840 L 400 840 C 300 840, 470 440, 510 440" class="wire-servo" />
<path d="M 845 690 C 760 690, 760 690, 690 690" class="wire-servo" />
<path d="M 845 835 C 805 835, 700 880, 600 880 L 400 880 C 300 880, 470 690, 510 690" class="wire-gnd" />
<text x="853" y="839" class="pin-label-dark" text-anchor="start">GND</text>
</svg>